<svg width="560" height="134" viewBox="0 0 560 134" fill="none" xmlns="http://www.w3.org/2000/svg">
<path d="M65.1236 100.951C57.0998 103.563 50.009 104.683 45.7172 104.683C30.2293 104.683 21.8323 93.4867 21.8323 79.1185C21.8323 64.9369 30.2293 47.3965 48.8894 25.9374C68.2958 81.5443 75.3866 130.62 75.3866 130.62H108.601C98.3384 57.0997 80.6114 3.30924e-06 80.6114 3.30924e-06H39.1861C40.8656 4.10521 42.3584 8.02382 43.8512 12.129C16.4209 38.0665 8.58047e-05 66.0565 8.58047e-05 91.2475C8.58047e-05 125.955 24.0715 133.792 42.545 133.792C54.8606 133.792 65.1236 130.62 65.1236 130.62V100.951ZM156.424 130.62C163.141 56.5399 159.036 3.30924e-06 159.036 3.30924e-06H117.424C128.247 65.8699 122.649 130.62 122.649 130.62H156.424ZM213.001 130.62C219.719 56.5399 215.614 3.30924e-06 215.614 3.30924e-06H174.002C184.825 65.8699 179.227 130.62 179.227 130.62H213.001ZM238.79 38.4397C236.364 60.2719 234.685 77.2525 234.685 95.1662C234.685 116.439 247.187 133.792 287.866 133.792C305.966 133.792 312.311 132.673 336.195 130.62C339.368 106.176 340.114 84.1567 340.114 67.9225C340.114 49.6357 339.181 38.4397 339.181 38.4397H297.383C302.794 61.3915 304.287 84.3433 304.287 100.391C304.287 108.601 303.914 114.946 303.54 119.984C301.674 120.73 296.263 122.596 290.478 122.596C281.335 122.596 271.072 118.678 271.072 97.0322C271.072 61.7647 272.192 38.4397 272.192 38.4397H238.79ZM394.354 130.62C397.526 107.482 398.459 88.6351 398.459 72.5875C398.459 66.2431 404.057 58.4059 415.999 58.4059C421.224 58.4059 427.568 60.8317 435.032 67.5493L459.29 41.0521C452.2 34.7077 443.616 31.3489 434.473 31.3489C422.344 31.3489 409.841 36.3871 398.086 50.9419C397.712 42.9181 397.339 38.4397 397.339 38.4397H355.541C366.923 84.9031 360.952 130.62 360.952 130.62H394.354ZM540.673 91.0609C537.874 106.922 530.783 119.424 519.027 119.424C507.085 119.424 497.568 112.147 494.209 92.927C513.056 87.1423 552.242 74.8267 552.242 52.4347C552.242 38.4397 536.754 31.3489 516.975 31.3489C487.305 31.3489 460.621 49.8223 459.315 80.6113C458.196 110.654 481.521 133.792 511.75 133.792C530.97 133.792 549.07 122.223 559.146 104.123L540.673 91.0609ZM492.903 81.1711C489.544 57.0997 502.42 42.5449 511.563 42.5449C518.281 42.5449 522.386 47.7697 522.386 54.3007C522.386 63.6307 515.295 72.7741 492.903 81.1711Z" fill="#D80913"/>
</svg>
