<svg width="898" height="306" viewBox="0 0 898 306" fill="none" xmlns="http://www.w3.org/2000/svg">
<path d="M67.4032 235.85C47.122 235.85 30.7742 229.315 18.3599 216.221C6.11619 202.938 0 185.236 0 163.103C0 140.97 6.99155 122.974 20.986 107.963C34.7986 92.7651 52.0217 85.16 72.6553 85.16C93.289 85.16 108.852 91.8012 120.914 105.084C133.147 118.366 139.274 135.88 139.274 157.625C139.274 179.371 132.283 197.943 118.288 213.341C104.294 228.351 87.3433 235.862 67.4032 235.862V235.85ZM72.121 232.383C85.0583 232.383 96.5176 226.423 106.476 214.481C116.446 202.55 121.426 186.388 121.426 165.983C121.426 144.049 116.094 125.477 105.43 110.267C95.1079 95.0689 81.3863 87.9458 64.2541 88.9097C51.8398 89.4856 40.9944 95.7389 31.7292 107.67C22.4639 119.6 17.8256 135.48 17.8256 155.298C17.8256 176.279 22.805 194.463 32.7751 209.862C42.9156 224.872 56.0234 232.383 72.1097 232.383H72.121Z" fill="white"/>
<path d="M247.581 85.4539C253.697 85.4539 259.779 86.6528 265.804 89.0624C271.841 91.4721 277.605 95.1277 283.118 100.029C288.632 104.931 293.088 111.819 296.499 120.67C299.909 129.521 301.615 139.724 301.615 151.266C301.615 162.809 299.511 174.646 295.317 185.612C291.122 196.579 285.517 205.724 278.537 213.035C263.849 228.245 248.456 235.839 232.381 235.839C222.763 235.839 213.851 234.005 205.631 230.349C197.412 226.694 191.034 222.168 186.487 216.785V274.228C186.487 286.347 187.965 294.34 190.943 298.183C193.911 302.027 201.607 303.955 214.021 303.955C215.067 303.955 215.59 304.284 215.59 304.966C215.59 305.647 215.067 305.977 214.021 305.977C208.076 305.977 201.777 305.835 195.138 305.542C188.488 305.248 185.077 305.107 184.907 305.107H172.845L165.239 305.683C159.999 305.871 155.099 305.977 150.552 305.977C149.847 305.977 149.506 305.683 149.506 305.107C149.676 304.531 150.029 304.143 150.552 303.955C159.817 303.955 165.671 302.027 168.127 298.183C170.401 294.528 171.538 286.535 171.538 274.228V135.092C171.538 121.81 170.355 112.677 168.002 107.67C165.637 102.662 161.056 99.9704 154.235 99.5826C153.712 99.3945 153.485 99.1006 153.575 98.7127C153.666 98.3248 153.882 98.0427 154.235 97.8429C162.102 96.115 170.06 91.8835 178.097 85.1365C178.972 84.3725 179.495 84.3725 179.666 85.1365C184.031 93.4115 186.044 107.07 185.703 126.124H186.226C189.716 120.928 193.569 115.827 197.764 110.82C200.732 107.352 204.847 103.309 210.088 98.701C220.058 89.85 232.552 85.4186 247.592 85.4186L247.581 85.4539ZM234.734 94.3989C228.266 94.3989 221.536 96.6087 214.544 101.04C207.371 105.66 202.3 109.797 199.333 113.453C196.014 117.308 191.728 122.88 186.487 130.191V195.145C190.329 204.196 196.798 212.471 205.893 219.97C214.988 227.093 224.514 230.655 234.484 230.655C250.571 230.655 262.769 224.59 271.068 212.471C279.367 200.352 283.527 183.602 283.527 162.245C283.527 140.887 279.026 124.478 270.022 112.454C261.018 100.429 249.252 94.4107 234.746 94.4107L234.734 94.3989Z" fill="white"/>
<path d="M298.988 227.763L364.811 93.8229C389.458 43.3029 439.559 0 494.366 0C507.485 0 516.92 1.44578 516.92 6.06523C516.92 12.4126 507.746 25.119 494.366 25.119C484.93 25.119 473.914 21.3693 448.994 14.1522C425.132 23.0972 411.49 38.9773 393.13 77.3669L345.133 177.831C358.252 159.071 372.405 141.745 386.309 127.029C409.387 102.204 431.157 86.3237 443.742 86.3237C452.916 86.3237 457.123 94.4106 457.123 102.204C457.123 128.181 411.229 191.689 411.229 211.613C411.229 216.514 413.855 219.406 418.573 219.406C424.075 219.406 432.215 213.917 443.231 202.95L445.334 205.842C426.189 225.189 410.717 235.286 402.85 235.286C391.573 235.286 388.424 225.471 388.424 218.548C388.424 188.81 434.579 129.344 434.579 109.433C434.579 104.813 432.476 101.346 427.497 101.346C418.061 101.346 404.942 112.606 388.424 129.92C370.325 148.68 350.396 174.375 334.662 200.07L320.497 229.515C319.452 231.819 317.871 232.982 315.78 232.982H301.876C298.988 232.982 297.681 230.678 298.988 227.787V227.763Z" fill="white"/>
<path d="M601.376 168.298C602.07 167.722 602.82 167.581 603.604 167.863C604.389 168.145 604.605 168.78 604.264 169.744C586.427 213.623 561.951 235.556 530.824 235.556C511.941 235.556 496.548 228.633 484.668 214.775C472.947 200.728 467.093 183.214 467.093 162.233C467.093 141.252 474.175 122.68 488.34 107.669C502.676 92.6592 519.456 85.1482 538.691 85.1482C552.674 85.1482 564.747 89.9557 574.888 99.5825C585.028 109.009 590.099 120.364 590.099 133.646C590.099 136.726 589.746 139.9 589.053 143.167H483.099C482.929 144.131 482.838 146.341 482.838 149.809C482.838 170.402 487.726 187.822 497.526 202.057C507.496 216.103 521.559 223.132 539.748 223.132C568.249 223.132 588.791 204.854 601.376 168.286V168.298ZM536.076 88.6275C524.708 88.6275 513.612 93.1529 502.767 102.192C491.921 111.243 485.453 123.937 483.361 140.299H561.519C568.863 140.299 572.535 136.068 572.535 127.593C572.535 115.662 569.476 106.188 563.36 99.1593C557.233 92.142 548.149 88.6275 536.088 88.6275H536.076Z" fill="white"/>
<path d="M647.532 232.959H635.208L627.603 233.535C622.362 233.723 617.462 233.828 612.915 233.828C612.21 233.828 611.869 233.535 611.869 232.959C612.04 232.383 612.392 231.995 612.915 231.807C622.18 231.807 628.035 229.891 630.491 226.035C632.764 222.38 633.901 214.399 633.901 202.08V55.4333C633.901 46.9702 632.366 41.1048 629.308 37.8253C626.25 34.5576 620.952 33.6878 613.438 35.2276C612.915 35.0396 612.654 34.6987 612.654 34.2168C612.654 33.7348 612.915 33.4998 613.438 33.4998C626.557 28.8803 637.835 23.297 647.27 16.7616C647.441 15.9976 647.884 15.9976 648.578 16.7616C648.748 16.9497 648.839 17.2435 648.839 17.6314V202.092C648.839 214.41 649.976 222.403 652.25 226.047C654.694 229.903 660.64 231.819 670.087 231.819C670.78 231.819 671.133 232.112 671.133 232.688C670.951 233.264 670.61 233.652 670.087 233.84C665.539 233.84 660.64 233.746 655.399 233.546L647.532 232.97V232.959Z" fill="white"/>
<path d="M717.038 232.959H704.715L697.109 233.535C691.869 233.723 686.969 233.829 682.421 233.829C681.717 233.829 681.375 233.535 681.375 232.959C681.546 232.383 681.898 231.995 682.421 231.807C691.687 231.807 697.541 229.891 699.997 226.035C702.271 222.38 703.407 214.399 703.407 202.08V129.909C703.407 116.826 702.18 108.645 699.735 105.366C697.28 101.71 692.482 99.7823 685.309 99.5943C684.957 99.4062 684.866 98.9243 685.048 98.1485L685.57 97.8546C696.063 95.7389 706.375 91.5073 716.515 85.1482C717.732 84.9602 718.345 85.2423 718.345 86.018V202.068C718.345 214.387 719.482 222.38 721.756 226.024C724.2 229.879 730.146 231.795 739.593 231.795C740.286 231.795 740.639 232.089 740.639 232.665C740.457 233.241 740.116 233.629 739.593 233.817C735.046 233.817 730.146 233.723 724.905 233.523L717.038 232.947V232.959ZM709.433 57.4433C706.284 57.4433 703.578 56.2444 701.304 53.8347C699.031 51.4251 697.894 48.4983 697.894 45.0308C697.894 41.5632 698.985 38.6834 701.168 36.3678C703.351 34.064 706.102 32.9003 709.433 32.9003C713.98 32.5124 717.209 34.4401 719.141 38.6717C721.063 42.9032 721.108 47.1465 719.278 51.3781C717.447 55.6096 714.162 57.6314 709.444 57.4433H709.433Z" fill="white"/>
<path d="M800.698 235.85C789.512 235.85 780.508 232.724 773.687 226.47C766.866 220.217 763.455 211.801 763.455 201.21C763.455 188.128 770.617 176.867 784.964 167.44C799.3 158.013 823.685 150.502 858.142 144.919V130.485C858.142 116.626 854.561 106.235 847.388 99.3122C840.396 92.3889 832.439 88.9214 823.526 88.9214C815.659 88.9214 805.95 91.7189 794.411 97.2904C792.308 109.409 790.034 118.025 787.59 123.126C785.135 128.228 781.554 130.778 776.836 130.778C774.38 130.778 772.379 129.909 770.799 128.181C769.23 126.453 768.435 124.337 768.435 121.833C768.435 113.558 774.551 105.377 786.795 97.2904C799.209 89.2035 812.317 85.1718 826.14 85.1718C857.608 85.1718 873.353 100.382 873.353 130.778V215.069C873.353 223.92 876.241 228.351 882.005 228.351C887.427 228.351 892.236 225.365 896.431 219.406C896.602 218.83 897.045 218.924 897.739 219.7C897.909 219.9 898 220.276 898 220.852C890.474 230.855 882.96 235.862 875.445 235.862C864.077 235.862 858.393 228.551 858.393 213.917V182.45H857.87C854.027 195.545 846.763 207.851 836.099 219.394C825.777 230.361 813.976 235.85 800.698 235.85ZM808.042 223.438C818.876 223.438 828.676 219.206 837.418 210.731C846.331 202.068 853.243 191.584 858.131 179.265V147.799C825.436 152.418 803.665 159.823 792.831 170.026C783.736 178.301 779.189 186.87 779.189 195.721C779.189 203.808 781.94 210.437 787.454 215.645C792.968 220.852 799.823 223.438 808.042 223.438Z" fill="white"/>
</svg>
