<svg width="107" height="111" viewBox="0 0 107 111" fill="none" xmlns="http://www.w3.org/2000/svg">
<path d="M36.7526 69.2536C32.8389 70.7235 29.354 71.4339 27.2298 71.5285C19.5642 71.87 15.1613 66.5137 14.8446 59.4022C14.5319 52.3831 18.3013 43.5165 27.0639 32.4841C37.8948 59.5786 42.4863 83.712 42.4863 83.712L58.9258 82.9798C52.2254 46.8175 42.1927 18.9472 42.1927 18.9472L21.6895 19.8604C22.6112 21.8553 23.4365 23.7618 24.2658 25.7608C11.2612 39.2031 3.75088 53.4186 4.30623 65.8867C5.07138 83.065 17.1582 86.4134 26.3015 86.0061C32.397 85.7346 37.4067 83.9383 37.4067 83.9383L36.7526 69.2536Z" fill="#D80913"/>
<path d="M45.3082 69.7964C45.6502 69.1642 46.5162 67.8301 47.3876 66.6191C48.3152 65.2822 49.1306 64.1971 50.1812 62.8548C50.8256 62.0857 50.6915 61.8449 48.6597 61.9354C47.4282 61.9903 46.5799 62.3365 45.5183 63.4326C44.1625 64.8503 42.8204 66.5758 41.9544 67.9099C40.9708 69.3726 39.9981 71.0817 39.4906 72.1531C39.1596 73.0315 39.4784 73.2641 41.0738 73.0696C42.364 72.9505 42.9742 72.7999 43.6296 72.2772C46.1223 70.0686 47.6628 68.6427 50.4019 66.4231C52.0683 65.0534 53.6841 63.9326 54.8265 63.2648C55.5489 62.8625 56.2179 62.6476 56.5929 62.7543C56.9678 62.8609 56.9227 63.2331 56.6901 63.5519C56.0512 64.4441 55.177 65.5935 54.3 66.6814C53.1372 68.2755 52.3246 69.4222 52.2535 70.5975C52.1182 71.714 52.6601 72.8004 54.9998 72.6961C57.1521 72.5386 59.4848 70.8923 60.7339 69.8496C61.9857 68.8685 63.8765 66.9951 64.5263 66.3493C64.8205 66.0277 64.9327 65.7759 64.804 65.6583C64.6138 65.5434 64.4319 65.6132 64.0789 65.999C63.4263 66.5833 62.0089 68.0037 61.1155 68.7221C60.3453 69.4351 59.3875 70.0947 58.5475 70.6256C58.0043 70.8966 57.338 71.173 57.0192 70.9405C56.7031 70.7695 56.7427 70.2742 57.1436 69.5777C57.4856 68.9455 58.0656 68.1177 58.9371 66.9067C59.8674 65.6314 61.0357 64.1604 61.0479 63.0494C61.119 61.874 60.2268 61.2351 58.5644 61.3092C55.9168 61.4271 53.0464 63.4675 51.0216 65.1C48.7559 66.8666 46.6189 68.7509 45.4368 69.914L45.3082 69.7964Z" fill="white"/>
<path d="M63.9994 67.1956C65.1648 65.5979 68.6365 63.032 70.7321 65.6591C73.3515 68.943 73.5301 72.9539 77.4448 70.6156" stroke="white" stroke-width="0.463252"/>
<path d="M47.4455 63.4173C47.2032 62.6037 47.4 61.008 50.1261 61.1339C53.5337 61.2913 51.2315 65.1037 48.4135 64.3017C45.5955 63.4997 44.114 58.001 39.0202 61.6286C34.9451 64.5306 32.1709 62.8612 31.2932 61.6637C29.3779 60.3063 24.8673 58.982 22.1473 64.5441C19.4273 70.1062 14.6102 66.5286 12.5416 64.0445" stroke="white" stroke-width="0.772087"/>
<path fill-rule="evenodd" clip-rule="evenodd" d="M94.2485 59.7814C94.2485 59.7814 91.8764 58.2722 90.8754 55.7668L102.341 45.718L103.674 47.2702L94.2485 59.7814Z" fill="white"/>
<path fill-rule="evenodd" clip-rule="evenodd" d="M97.3532 51.7332L84.5815 63.3411L84.2789 62.8946L83.6007 63.5381C83.6007 63.5381 82.4529 62.6203 82.4311 62.6703L83.05 63.8693L81.9008 63.4605L82.5197 64.6595L81.3569 63.9447L81.9758 65.1437L80.8198 64.5819L81.4387 65.7809L80.2827 65.2191L80.9016 66.4181L79.7456 65.8563L80.3577 66.9023L79.2017 66.3405L79.8206 67.5395L78.6646 66.9777L79.2835 68.1767L78.1343 67.7679L78.7464 68.8139L77.7315 68.2458L78.2093 69.4511L77.0601 69.0423L77.6722 70.0883L76.5094 69.3735L77.2762 70.7192L76.8733 71.1971L77.3171 71.6373L77.7267 71.3124L79.3332 72.4674L79.0101 71.5619C79.1603 71.6492 79.3061 71.7451 79.447 71.8491V71.8491L79.1035 70.4845L80.132 71.3586L79.6474 70.0003L80.9649 71.0149L80.3324 69.5099L81.3609 70.384L81.0174 69.0194L82.1939 70.0402L82.1598 69.2751L82.7378 69.556L82.2463 68.0447L83.4228 69.0656L82.9382 67.7073L84.1146 68.7281L83.63 67.3698L84.5106 68.0972L84.315 66.8794L85.3571 68.0595L84.8521 66.2422L85.8738 66.9632L85.396 65.758L86.0742 65.1145L85.9126 64.6617L98.5433 53.0601L97.3532 51.7332Z" fill="white"/>
</svg>
